<?xml version="1.0" encoding="utf-8"?>
<!-- Generator: Adobe Illustrator 21.0.0, SVG Export Plug-In . SVG Version: 6.00 Build 0)  -->
<svg version="1.1" id="Layer_1" xmlns="http://www.w3.org/2000/svg" xmlns:xlink="http://www.w3.org/1999/xlink" x="0px" y="0px"
	 viewBox="0 0 355 233" style="enable-background:new 0 0 355 233;" xml:space="preserve">
<style type="text/css">
	.st0{fill:none;stroke:#00AEEF;stroke-width:15;stroke-miterlimit:10;}
	.st1{fill:#00AEEF;}
	.st2{fill:none;stroke:#00AEEF;stroke-width:8;stroke-miterlimit:10;}
</style>
<path class="st0" d="M289.8,214.1H61.4c-25.9,0-46.8-21-46.8-46.8V63.9c0-25.9,21-46.8,46.8-46.8h228.3c25.9,0,46.8,21,46.8,46.8
	v103.3C336.6,193.1,315.6,214.1,289.8,214.1z"/>
<g>
	<path class="st1" d="M187,56.8l-0.5,18.4l17.3-6.2l3,9.2L189,83.3l11.3,14.4l-7.9,5.7L182,88.2l-10.3,15.2l-7.9-5.6l11.3-14.5
		l-17.7-5l3-9.2l17.5,6.2l-0.6-18.4L187,56.8L187,56.8z"/>
	<path d="M225.3,54.4h7.7h42.7c9.8,0,17.7,2.5,23.7,7.5c6,5,9,11.7,9,19.9c0,9.5-3.5,17-10.6,22.3c-1.6,1.3-3.4,2.3-5.2,3.2
		c3.8,1.4,7.1,3,9.9,5.1c7.5,5.5,11.3,13,11.3,22.7c0,10.7-3.7,19-11,25s-17.5,9-30.5,9H233h-7.7V54.4z M240.8,103.3h27.7
		c8.4,0,14.6-1.5,18.5-4.6s5.9-7.9,5.9-14.4c0-5.7-1.8-9.9-5.4-12.6c-3.6-2.7-9.2-4-17-4h-29.8L240.8,103.3L240.8,103.3z M240.8,156
		h31.6c8.9,0,15.4-1.7,19.6-5.2s6.2-8.9,6.2-16.3c0-6.5-2.2-11.2-6.5-14.2s-11.1-4.5-20.4-4.5h-30.5L240.8,156L240.8,156z"/>
</g>
<path class="st2" d="M297.5,160.3"/>
<path class="st2" d="M51,160.3"/>
</svg>
