<?xml version="1.0" encoding="utf-8"?>
<!-- Generator: Adobe Illustrator 21.0.0, SVG Export Plug-In . SVG Version: 6.00 Build 0)  -->
<svg version="1.1" id="Layer_1" xmlns="http://www.w3.org/2000/svg" xmlns:xlink="http://www.w3.org/1999/xlink" x="0px" y="0px"
	 viewBox="0 0 355 229" style="enable-background:new 0 0 355 229;" xml:space="preserve">
<style type="text/css">
	.st0{fill:none;stroke:#FFFFFF;stroke-width:15;stroke-miterlimit:10;}
	.st1{fill:#FFFFFF;stroke:#FFFFFF;stroke-miterlimit:10;}
	.st2{fill:none;stroke:#FFFFFF;stroke-miterlimit:10;}
</style>
<path class="st0" d="M288.8,210.1H60.4c-25.9,0-46.8-21-46.8-46.8V59.9c0-25.9,21-46.8,46.8-46.8h228.3c25.9,0,46.8,21,46.8,46.8
	v103.3C335.6,189.1,314.6,210.1,288.8,210.1z"/>
<g>
	<path class="st1" d="M196,40.8l-0.5,18.4l17.3-6.2l3,9.2L198,67.3l11.3,14.4l-7.9,5.7L191,72.2l-10.3,15.2l-7.9-5.6l11.3-14.5
		l-17.7-5l2-9.2l17.5,6.2l0.4-18.4L196,40.8L196,40.8z"/>
	<path class="st1" d="M223.3,41.4h7.7h42.7c9.8,0,17.7,2.5,23.7,7.5c6,5,9,11.7,9,19.9c0,9.5-3.5,17-10.6,22.3
		c-1.6,1.3-3.4,2.3-5.2,3.2c3.8,1.4,7.1,3,9.9,5.1c7.5,5.5,11.3,13,11.3,22.7c0,10.7-3.7,19-11,25s-17.5,9-30.5,9H231h-7.7V41.4z
		 M238.8,90.3h27.7c8.4,0,14.6-1.5,18.5-4.6s5.9-7.9,5.9-14.4c0-5.7-1.8-9.9-5.4-12.6c-3.6-2.7-9.2-4-17-4h-29.8L238.8,90.3
		L238.8,90.3z M238.8,143h31.6c8.9,0,15.4-1.7,19.6-5.2s6.2-8.9,6.2-16.3c0-6.5-2.2-11.2-6.5-14.2s-11.1-4.5-20.4-4.5h-30.5
		L238.8,143L238.8,143z"/>
</g>
<path class="st2" d="M296.5,156.3"/>
<path class="st2" d="M50,156.3"/>
</svg>
